# xmcd
#
# Track frame offsets: 
#        150
#        5276
#        16440
#        30860
#        53417
#        67769
#        78449
#        97861
#        112121
#        126802
#        149598
#        170295
#        191476
#        201778
#        223526
#        237253
#        248770
#        274350
#        288421
#        299779
#
# Disc length: 4218 seconds
#
# Revision: 0
# Processed by: cddbd v1.5.2PL0 Copyright (c) Steve Scherf et al.
# Submitted via: ExactAudioCopy v0.95b3
#
DISCID=1b107814
DTITLE=Tom Waits  - Orphans - Brawlers, Bawlers and Bastards - Disc 2
DYEAR=1900
DGENRE=
TTITLE0=Bend Down The Branches
TTITLE1=You Can Never Hold Back Spring
TTITLE2=Long Way Home
TTITLE3=Widow's Grove
TTITLE4=Little Drop Of Poison
TTITLE5=Shiny Things
TTITLE6=World Keeps Turning
TTITLE7=Tell It To Me
TTITLE8=Never Let Go
TTITLE9=Fannin Street
TTITLE10=Little Man
TTITLE11=It's Over
TTITLE12=If I Have To Go
TTITLE13=Goodnight Irene
TTITLE14=The Fall Of Troy
TTITLE15=Take Care Of All My Children
TTITLE16=Down There By The Train
TTITLE17=Danny Says
TTITLE18=Jayne's Blue Wish
TTITLE19=Young At Heart
EXTD=
EXTT0=
EXTT1=
EXTT2=
EXTT3=
EXTT4=
EXTT5=
EXTT6=
EXTT7=
EXTT8=
EXTT9=
EXTT10=
EXTT11=
EXTT12=
EXTT13=
EXTT14=
EXTT15=
EXTT16=
EXTT17=
EXTT18=
EXTT19=
PLAYORDER=
